<?xml version="1.0" standalone="no"?>
<!DOCTYPE svg PUBLIC "-//W3C//DTD SVG 20010904//EN"
 "http://www.w3.org/TR/2001/REC-SVG-20010904/DTD/svg10.dtd">
<svg version="1.0" xmlns="http://www.w3.org/2000/svg"
 width="156.000000pt" height="156.000000pt" viewBox="0 0 156.000000 156.000000"
 preserveAspectRatio="xMidYMid meet">
<metadata>
Created by potrace 1.11, written by Peter Selinger 2001-2013
</metadata>
<g transform="translate(0.000000,156.000000) scale(0.100000,-0.100000)"
fill="#000000" stroke="none">
<path d="M635 1485 c-370 -82 -628 -374 -634 -718 -7 -346 255 -643 624 -708
93 -16 270 -6 363 20 481 138 714 654 478 1058 -90 153 -228 260 -420 325 -80
27 -106 31 -221 34 -81 1 -152 -2 -190 -11z m373 -54 c235 -68 411 -232 482
-451 27 -82 35 -232 16 -313 -8 -32 -16 -60 -19 -63 -2 -3 -259 -7 -571 -9
l-566 -5 -1 117 c0 65 -2 229 -4 364 l-4 245 63 37 c72 43 153 73 246 92 93
19 266 12 358 -14z m-702 -675 c6 -510 6 -518 -13 -507 -46 24 -42 -16 -58
576 -2 88 -5 211 -6 273 l-2 113 33 34 c19 19 35 33 37 32 2 -2 6 -237 9 -521z
m-117 302 c1 -106 10 -433 15 -616 2 -56 2 -102 -1 -102 -8 0 -42 42 -58 71
-11 21 -16 87 -21 275 -3 137 -7 272 -8 299 -2 28 1 61 6 75 8 23 57 100 63
100 2 0 3 -46 4 -102z m-110 -245 c2 -71 4 -163 6 -205 2 -43 2 -78 0 -78 -10
0 -36 119 -42 184 -6 81 13 226 31 226 2 0 4 -57 5 -127z m1391 -265 c0 -11
59 -9 -567 -14 -371 -3 -553 -1 -553 6 0 6 103 11 293 12 588 6 827 5 827 -4z
m-30 -65 c0 -7 -1 -13 -2 -14 -2 -1 -247 -3 -545 -5 -478 -4 -543 -3 -543 11
0 13 49 15 373 17 661 5 717 4 717 -9z m-50 -68 c0 -13 8 -12 -544 -16 -375
-2 -491 0 -494 9 -3 9 104 12 460 14 603 4 578 4 578 -7z m-50 -69 c-13 -12
-87 -15 -497 -17 -265 -2 -486 0 -490 4 -4 5 -2 11 4 15 6 4 233 8 505 10 436
3 491 1 478 -12z m-73 -73 c-14 -14 -69 -16 -461 -19 -258 -1 -448 2 -452 7
-3 5 -3 12 -1 17 3 4 213 8 468 9 423 2 461 1 446 -14z m-97 -67 c-10 -10
-776 -18 -805 -8 -24 8 290 17 597 17 122 0 213 -4 208 -9z m-116 -59 c-20
-11 -518 -19 -559 -9 -40 9 130 17 382 17 113 0 186 -3 177 -8z"/>
</g>
</svg>
